<?xml version="1.0" standalone="no"?>
<!DOCTYPE svg PUBLIC "-//W3C//DTD SVG 20010904//EN"
 "http://www.w3.org/TR/2001/REC-SVG-20010904/DTD/svg10.dtd">
<svg version="1.0" xmlns="http://www.w3.org/2000/svg"
 width="512.000000pt" height="512.000000pt" viewBox="0 0 512.000000 512.000000"
 preserveAspectRatio="xMidYMid meet">
<metadata>
Created by potrace 1.14, written by Peter Selinger 2001-2017
</metadata>
<g transform="translate(0.000000,512.000000) scale(0.100000,-0.100000)"
fill="#000000" stroke="none">
<path d="M2164 3975 c-31 -31 -29 -59 10 -152 30 -70 51 -213 43 -285 -10 -79
-30 -104 -140 -175 -56 -36 -147 -101 -202 -143 -146 -112 -152 -115 -270
-115 -142 0 -171 18 -331 201 -196 225 -158 214 -759 214 l-462 0 -27 -25
c-14 -13 -26 -35 -26 -48 0 -13 59 -167 131 -343 218 -532 232 -567 245 -627
20 -92 4 -163 -80 -370 -41 -100 -95 -234 -121 -297 -26 -63 -76 -186 -111
-272 -35 -87 -64 -169 -64 -183 0 -14 11 -37 25 -50 l24 -25 474 0 c512 0 516
0 599 55 20 13 86 80 148 149 124 139 169 169 275 181 96 11 166 -18 295 -121
58 -47 139 -105 181 -129 141 -81 193 -170 193 -326 0 -74 -4 -93 -27 -137
-33 -64 -34 -96 -2 -127 l24 -25 628 0 c578 0 631 1 663 18 23 11 69 62 138
152 57 74 117 150 134 167 18 18 86 59 152 92 458 225 1015 729 1168 1058 30
63 31 69 25 162 -35 562 -574 1037 -1294 1141 -104 15 -125 34 -194 169 -59
116 -111 175 -184 211 l-50 25 -603 3 -602 3 -26 -26z"/>
</g>
</svg>
